# xmcd CD database file
#
# Track frame offsets:
#	150
#	23387
#	41407
#	62735
#	84417
#	107777
#	120015
#	137650
#	165442
#	182562
#	206132
#	222037
#
# Disc length: 3185 seconds
#
# Revision: 0
# Processed by: cddbd v1.4PL0 Copyright (c) Steve Scherf et al.
# Submitted via: CDex 1.51
#
DISCID=900c6f0c
DTITLE=Elliot Steger - transition
DYEAR=2000
DGENRE=New Age
TTITLE0=Sunny Day
TTITLE1=Cool Bossa
TTITLE2=After Dark
TTITLE3=Journey
TTITLE4=River Blue
TTITLE5=Got That Right
TTITLE6=Walt and Swing
TTITLE7=Serenity
TTITLE8=Salsa and Swing
TTITLE9=Reminiscence
TTITLE10=Adam's Song
TTITLE11=Nine Sharp
EXTD=YEAR: 2000
EXTT0=
EXTT1=
EXTT2=
EXTT3=
EXTT4=
EXTT5=
EXTT6=
EXTT7=
EXTT8=
EXTT9=
EXTT10=
EXTT11=
PLAYORDER=
